<svg width="100%" height="100%" viewBox="0 0 6250 6250" version="1.1" xmlns="http://www.w3.org/2000/svg" xmlns:xlink="http://www.w3.org/1999/xlink" xml:space="preserve" style="fill-rule:evenodd;clip-rule:evenodd;stroke-linejoin:round;stroke-miterlimit:2;"><g id="layer1"><circle cx="3125" cy="3125" r="3125" style="fill:#aed9d2;"/><path id="path2" d="M3113.299,2323.413c-10.843,0 -29.848,-18.183 -41.423,-39.812c-39.866,-74.494 -235.156,-240.516 -358.218,-304.542c-111.109,-57.804 -447.013,-160.95 -484.002,-148.621c-8.334,2.779 32.959,37.927 91.762,78.106c160.445,109.627 239.975,218.26 272.585,372.324c9.268,43.785 26.204,97.933 37.638,120.327c28.042,54.931 130.968,112.673 289.365,162.334c232.106,72.768 255.707,95.918 235.458,230.938c-11.496,76.664 -92.028,217.6 -170.942,299.163c-30.461,31.485 -102.699,80.673 -160.528,109.31c-93.503,46.304 -125.925,53.799 -292.895,67.699c-222.459,18.522 -280.689,41.149 -321.611,124.977c-59.981,122.868 -21.132,377.793 82.591,541.987c63.759,100.929 253.886,334.116 320.36,392.911c45.637,40.367 390.932,358.103 390.932,358.103l117.064,92.288l0,467.266c0,0 -882.49,-100.084 -1661.965,-880.141c-383.886,-384.173 -535.058,-763.891 -593.63,-1193.788c-19.989,-146.725 -20.764,-335.911 -1.424,-347.865c8.021,-4.957 29.837,9.852 48.485,32.909c18.644,23.057 86.012,94.436 149.702,158.625c158.826,160.063 299.019,228.941 464.828,228.371c98.539,-0.335 122.76,-5.962 175.272,-40.713c180.859,-119.688 228.746,-315.868 169.713,-695.272c-53.334,-342.775 -57.862,-340.306 -55.81,30.429c2.076,375.54 -5.137,418.282 -89.163,528.447c-84.433,110.698 -233.104,132.23 -387.987,56.196c-159.345,-78.225 -446.505,-382.378 -468.184,-495.888c-11.29,-59.12 12.365,-148.217 78.568,-295.937c145.023,-323.579 313.86,-519.536 556.55,-645.94c556.046,-289.614 1214.595,-132.255 1550.557,352.227l59.812,86.253m-749.886,339.538c20.573,-54.109 -4.993,-112.652 -49.195,-112.652c-43.976,0 -70.965,26.384 -70.965,69.368c0,59.412 16.445,80.835 62.061,80.835c32.927,0 47.375,-9.34 58.103,-37.552l-0.004,0Z" style="fill:#13a38b;fill-rule:nonzero;"/><path id="path3" d="M3115.43,2127.409l68.099,-95.431c151.541,-212.369 381.812,-377.602 633.117,-454.306c118.528,-36.178 159.418,-41.164 337.634,-41.164c178.019,0 219.276,5.018 337.955,41.103c401.902,122.201 689.685,412.94 830.801,839.34c111.574,337.137 100.806,747.604 -29.383,1120.123c-109.27,312.667 -284.841,578.443 -578.114,914.97c-611.499,701.682 -1594.519,796.126 -1594.519,796.126l0.416,-467.189c0,0 131.809,-87.668 174.818,-114.899c256.852,-162.626 341.149,-443.664 368.305,-498.162c64.491,-138.426 52.584,-340.136 50.053,-353.287c-2.531,-13.147 -72.191,-350.63 -185.592,-386.275c-136.3,-42.844 -208.069,-102.67 -268.803,-224.067c-66.214,-132.352 -66.138,-167.388 0.494,-235.628c38.752,-39.686 60.706,-82.868 82.955,-163.156c32.912,-118.766 56.895,-164.71 123.553,-236.662l43.514,-46.971l-38.424,-110.489c-32.858,-94.487 -35.392,-113.524 -17.484,-131.429c30.342,-30.342 109.011,-11.435 244.777,58.82c126.772,65.601 207.286,75.99 255.505,32.966c16.204,-14.455 61.69,-79.188 101.084,-143.852c39.394,-64.66 81.304,-121.278 93.131,-125.817c68.431,-26.261 217.366,269.535 253.212,502.903c6.896,44.888 38.031,103.748 103.283,195.264c186.89,262.095 322.022,564.099 374.501,836.958c20,103.993 20.425,104.649 38.95,60.082c52.09,-125.316 97.021,-465.167 83.406,-630.85c-35.371,-430.405 -198,-737.907 -495.484,-936.877c-407.821,-272.769 -950.15,-231.324 -1279.237,97.764c-52.588,52.588 -104.02,96.094 -114.864,96.094" style="fill:#13a38b;fill-rule:nonzero;"/></g></svg>