<svg width="100%" height="100%" viewBox="0 0 6250 6250" version="1.1" xmlns="http://www.w3.org/2000/svg" xmlns:xlink="http://www.w3.org/1999/xlink" xml:space="preserve" style="fill-rule:evenodd;clip-rule:evenodd;stroke-linejoin:round;stroke-miterlimit:2;"><g id="layer1"><path id="path2" d="M3115.596,1886.562c-12.533,0 -34.5,-21.017 -47.879,-46.017c-46.079,-86.104 -271.804,-278 -414.046,-352.004c-128.425,-66.812 -516.679,-186.033 -559.433,-171.783c-9.633,3.213 38.096,43.838 106.062,90.279c185.45,126.713 277.375,252.275 315.067,430.35c10.713,50.608 30.287,113.196 43.504,139.079c32.413,63.492 151.379,130.233 334.463,187.633c268.279,84.108 295.558,110.867 272.154,266.929c-13.287,88.613 -106.371,251.512 -197.583,345.788c-35.208,36.392 -118.704,93.246 -185.546,126.346c-108.075,53.521 -145.55,62.183 -338.542,78.25c-257.129,21.408 -324.433,47.562 -371.733,144.454c-69.329,142.017 -24.425,436.671 95.463,626.454c73.696,116.658 293.454,386.187 370.288,454.146c52.75,46.658 451.858,413.913 451.858,413.913l135.308,106.671l0,540.089c0,0 -1020.024,-115.682 -1920.979,-1017.31c-443.714,-444.046 -618.446,-882.942 -686.146,-1379.838c-23.104,-169.592 -24,-388.262 -1.646,-402.079c9.271,-5.729 34.487,11.387 56.042,38.038c21.55,26.65 99.417,109.154 173.033,183.346c183.579,185.008 345.621,264.621 537.271,263.963c113.896,-0.387 141.892,-6.892 202.587,-47.058c209.046,-138.342 264.396,-365.096 196.163,-803.629c-61.646,-396.196 -66.879,-393.342 -64.508,35.171c2.4,434.067 -5.938,483.471 -103.058,610.804c-97.592,127.95 -269.433,152.838 -448.454,64.954c-184.179,-90.417 -516.092,-441.971 -541.15,-573.171c-13.05,-68.333 14.292,-171.317 90.812,-342.058c167.625,-374.008 362.775,-600.504 643.288,-746.608c642.704,-334.75 1403.887,-152.867 1792.208,407.121l69.133,99.696m-866.754,392.454c23.779,-62.542 -5.771,-130.208 -56.863,-130.208c-50.829,0 -82.025,30.496 -82.025,80.179c0,68.671 19.008,93.433 71.733,93.433c38.058,0 54.758,-10.796 67.158,-43.404l-0.004,0Z" style="fill:#13a38b;fill-rule:nonzero;"/><path id="path3" d="M3118.058,1660.013l78.712,-110.304c175.158,-245.467 441.317,-436.45 731.788,-525.108c137,-41.817 184.262,-47.579 390.254,-47.579c205.762,0 253.45,5.8 390.625,47.508c464.538,141.246 797.171,477.296 960.279,970.15c128.962,389.679 116.517,864.117 -33.963,1294.692c-126.3,361.396 -329.233,668.592 -668.213,1057.567c-706.8,811.037 -1843.022,920.201 -1843.022,920.201l0.48,-540c0,0 152.351,-101.331 202.062,-132.806c296.882,-187.971 394.317,-512.808 425.704,-575.8c74.542,-160 60.779,-393.146 57.854,-408.346c-2.925,-15.196 -83.442,-405.275 -214.517,-446.475c-157.542,-49.521 -240.496,-118.671 -310.696,-258.988c-76.533,-152.979 -76.446,-193.475 0.571,-272.35c44.792,-45.871 70.167,-95.783 95.883,-188.583c38.042,-137.275 65.763,-190.379 142.808,-273.546l50.296,-54.292l-44.412,-127.708c-37.979,-109.213 -40.908,-131.217 -20.208,-151.913c35.071,-35.071 126,-13.217 282.925,67.988c146.529,75.825 239.592,87.833 295.325,38.104c18.729,-16.708 71.304,-91.529 116.838,-166.271c45.533,-74.737 93.975,-140.179 107.646,-145.425c79.096,-30.354 251.242,311.542 292.675,581.279c7.971,51.883 43.958,119.917 119.379,225.696c216.017,302.942 372.208,652.013 432.867,967.396c23.117,120.2 23.608,120.958 45.021,69.446c60.208,-144.846 112.142,-537.662 96.404,-729.167c-40.883,-497.483 -228.858,-852.908 -572.704,-1082.887c-471.379,-315.279 -1098.229,-267.375 -1478.604,113c-60.783,60.783 -120.232,111.07 -132.765,111.07" style="fill:#13a38b;fill-rule:nonzero;"/></g></svg>